# xmcd
#
# Track frame offsets:
#	150
#	10972
#	24614
#	33804
#	45862
#	57079
#	72763
#	85883
#	97397
#	110553
#	125220
#	138828
#	153829
#
# Disc length: 2282 seconds
# Revision: 1
# Processed by: cddbd v1.5.2PL0 Copyright (c) Steve Scherf et al.
# Submitted via: dBpowerAMP V12.0
#
DISCID=a508e80d
DTITLE=Bad Bob and his Good Friends - Bad Bob and his Good Friends
DYEAR=2001
DGENRE=Country
TTITLE0=Down Yonder
TTITLE1=Momma's Love
TTITLE2=Texas Home
TTITLE3=Cigarettes And Coffee Blues
TTITLE4=When You Play The Fiddle In Texas
TTITLE5=Lord, I'm In Trouble
TTITLE6=Stars On The Sidewalk (Duet with Dale Watson)
TTITLE7=Favorite Baby
TTITLE8=Deep In The Heart Of Texas
TTITLE9=Daddy's Pad (When Momma's Mad)
TTITLE10=She Took A Blowtorch To My Workbench
TTITLE11=Orange Blossom Special
TTITLE12=Give Me Jesus
EXTD=
EXTT0=
EXTT1=
EXTT2=
EXTT3=
EXTT4=
EXTT5=
EXTT6=
EXTT7=
EXTT8=
EXTT9=
EXTT10=
EXTT11=
EXTT12=
PLAYORDER=
